<?xml version="1.0" encoding="UTF-8" standalone="no"?>
<svg
   width="1920"
   height="1080"
   viewBox="0 0 508 285.75"
   version="1.1"
   id="svg5"
   inkscape:version="1.1-dev (9017afb, 2021-01-01)"
   sodipodi:docname="hero-image.svg"
   inkscape:export-filename="/Users/kevin/Desktop/HelloWorld/hero.png"
   inkscape:export-xdpi="96"
   inkscape:export-ydpi="96"
   xmlns:inkscape="http://www.inkscape.org/namespaces/inkscape"
   xmlns:sodipodi="http://sodipodi.sourceforge.net/DTD/sodipodi-0.dtd"
   xmlns="http://www.w3.org/2000/svg"
   xmlns:svg="http://www.w3.org/2000/svg">
  <sodipodi:namedview
     id="namedview7"
     pagecolor="#ffffff"
     bordercolor="#666666"
     borderopacity="1.0"
     objecttolerance="10.0"
     gridtolerance="10.0"
     guidetolerance="10.0"
     inkscape:pageshadow="2"
     inkscape:pageopacity="0.0"
     inkscape:pagecheckerboard="0"
     inkscape:document-units="px"
     showgrid="false"
     inkscape:zoom="0.19088381"
     inkscape:cx="1286.1227"
     inkscape:cy="1018.9444"
     inkscape:window-width="1412"
     inkscape:window-height="795"
     inkscape:window-x="0"
     inkscape:window-y="25"
     inkscape:window-maximized="0"
     inkscape:current-layer="g19881"
     inkscape:snap-global="false" />
  <defs
     id="defs2" />
  <g
     inkscape:label="Layer 1"
     inkscape:groupmode="layer"
     id="layer1">
    <g
       id="g19881"
       transform="matrix(0.48635803,0,0,0.48635803,93.419446,45.052302)">
      <g
         id="g20030"
         transform="translate(-9.2161187)">
        <path
           id="rect7387"
           style="opacity:1;fill:#ffaaee;stroke-width:3.28194"
           transform="matrix(0.93410542,0.35699729,-0.42709546,0.90420654,0,0)"
           d="M 524.32229,-96.248077 C 1028.7749,147.43188 491.6542,403.35854 244.98956,383.16815 -199.87819,210.13209 135.4717,-428.7267 524.32229,-96.248077 Z"
           sodipodi:nodetypes="ccc" />
        <path
           id="rect11721"
           style="opacity:1;fill:#67536c;stroke-width:2.60672"
           transform="matrix(0.99835165,-0.05739323,-0.00642835,0.99997934,0,0)"
           d="M 60.299279,32.129551 602.88964,60.715706 c 3.21669,0.16947 5.79962,5.306775 5.79484,11.897911 l -0.18407,253.693953 c -0.005,6.59113 -2.58125,11.95749 -5.79484,11.89791 L 60.234515,328.14739 c -3.213592,-0.0596 -5.796407,-5.30657 -5.794839,-11.89791 L 54.50444,44.027462 c 0.0016,-6.591343 2.578142,-12.067381 5.794839,-11.897911 z"
           sodipodi:nodetypes="sssssssss" />
        <path
           id="path12488"
           style="opacity:1;fill:#c8b7c4;fill-opacity:1;stroke-width:2.41145"
           d="M 79.947782,39.521477 581.4056,37.155048 c 2.97284,-0.01403 5.33019,4.605906 5.28653,10.709639 l -1.68037,234.933723 c -0.0439,6.10374 -2.45757,11.20999 -5.42819,11.32561 L 78.125755,313.64134 c -2.97063,0.11561 -5.327223,-4.60589 -5.286536,-10.70964 L 74.519593,50.847083 c 0.04072,-6.103756 2.455343,-11.311577 5.428189,-11.325606 z"
           sodipodi:nodetypes="sssssssss" />
        <g
           id="g11622"
           transform="matrix(0.22571436,-0.01100457,-0.01025223,0.22503126,100.90389,165.92855)">
          <g
             id="g11585"
             transform="translate(243.77082,-57.843923)">
            <path
               id="path11330"
               style="opacity:1;fill:#00ccff;stroke-width:2.64583"
               d="m 1216.0315,157.47679 c -8.3031,0 -14.9877,6.68459 -14.9877,14.98772 v 46.32534 c 0,8.3031 6.6846,14.98772 14.9877,14.98772 h 18.1018 l 21.5067,22.3671 23.2616,-22.3671 h 201.4564 c 8.3031,0 14.9877,-6.68462 14.9877,-14.98772 v -46.32534 c 0,-8.30313 -6.6846,-14.98772 -14.9877,-14.98772 z" />
            <path
               id="path11328"
               style="opacity:1;fill:#37c837;stroke-width:2.64583"
               d="m 1216.0314,80.732132 c -8.3031,0 -14.9877,6.68459 -14.9877,14.98772 v 46.325328 c 0,8.3031 6.6846,14.98772 14.9877,14.98772 h 18.1018 l 21.5067,22.3671 23.2616,-22.3671 h 201.4565 c 8.3031,0 14.9877,-6.68462 14.9877,-14.98772 V 95.719852 c 0,-8.30313 -6.6846,-14.98772 -14.9877,-14.98772 z" />
          </g>
          <g
             id="g11581"
             transform="translate(130.14883,-237.57326)">
            <path
               id="path11248"
               style="opacity:1;fill:#00ccff;stroke-width:2.64583"
               d="m 1109.6654,567.28237 c -8.3031,0 -14.9877,6.68459 -14.9877,14.98772 v 46.32534 c 0,8.3031 6.6846,14.98772 14.9877,14.98772 h 18.1018 l 21.5067,22.3671 23.2616,-22.3671 h 201.4564 c 8.3031,0 14.9877,-6.68462 14.9877,-14.98772 v -46.32534 c 0,-8.30313 -6.6846,-14.98772 -14.9877,-14.98772 z" />
            <path
               id="path11332"
               style="opacity:1;fill:#ff7f2a;stroke-width:2.64583"
               d="m 1109.6653,493.7368 c -8.3031,0 -14.9877,6.6846 -14.9877,14.98772 v 46.32534 c 0,8.3031 6.6847,14.98772 14.9877,14.98772 h 18.1018 l 21.5067,22.36711 23.2616,-22.36711 h 201.4564 c 8.3031,0 14.9878,-6.68462 14.9878,-14.98772 v -46.32534 c 0,-8.30312 -6.6847,-14.98772 -14.9878,-14.98772 z" />
          </g>
          <g
             id="g11591">
            <path
               id="path11495"
               style="opacity:1;fill:#ff7f2a;stroke-width:2.64583"
               d="m 1248.337,-140.34367 c -8.3031,0 -14.9877,6.68459 -14.9877,14.98772 v 46.325337 c 0,8.3031 6.6846,14.98772 14.9877,14.98772 h 18.1018 l 21.5067,22.36711 23.2616,-22.36711 h 201.4564 c 8.3031,0 14.9878,-6.68462 14.9878,-14.98772 v -46.325337 c 0,-8.30313 -6.6847,-14.98772 -14.9878,-14.98772 z" />
            <path
               id="path11577"
               style="opacity:1;fill:#ff7f2a;stroke-width:2.64583"
               d="m 1248.337,-8.8674568 c -8.3031,0 -14.9877,-6.6845902 -14.9877,-14.9877192 v -46.325337 c 0,-8.303094 6.6846,-14.987711 14.9877,-14.987711 h 18.1018 l 21.5067,-22.367096 23.2616,22.367096 h 201.4564 c 8.3031,0 14.9878,6.684617 14.9878,14.987711 v 46.325337 c 0,8.303129 -6.6847,14.9877192 -14.9878,14.9877192 z" />
            <path
               id="path11326"
               style="opacity:1;fill:#ffd42a;stroke-width:2.49431"
               d="m 1279.0294,-108.54928 c -7.3793,0 -13.3202,6.68459 -13.3202,14.987681 v 46.325333 c 0,8.3031 5.9409,14.98772 13.3202,14.98772 h 16.0878 l 19.1139,22.3671047 20.6735,-22.3671047 h 179.0427 c 7.3793,0 13.3202,-6.68462 13.3202,-14.98772 v -46.325333 c 0,-8.303091 -5.9409,-14.987681 -13.3202,-14.987681 z" />
            <path
               id="path11334"
               style="opacity:1;fill:#ff55dd;stroke-width:2.64583"
               d="m 1246.8594,-215.48583 c -8.3031,0 -14.9877,6.6846 -14.9877,14.98772 v 46.32534 c 0,8.3031 6.6846,14.98772 14.9877,14.98772 h 18.1018 l 21.5067,22.36711 23.2616,-22.36711 h 201.4564 c 8.3031,0 14.9878,-6.68462 14.9878,-14.98772 v -46.32534 c 0,-8.30312 -6.6847,-14.98772 -14.9878,-14.98772 z" />
          </g>
        </g>
        <rect
           style="opacity:1;fill:#ffffff;stroke:#000000;stroke-width:2.64583"
           id="rect7239"
           width="72.86113"
           height="118.39934"
           x="201.27888"
           y="247.72784" />
        <g
           id="body/mono/Thunder-T-Shirt"
           stroke="none"
           stroke-width="1"
           fill="none"
           fill-rule="evenodd"
           transform="matrix(0.26458333,0,0,0.26458333,115.34425,195.64758)">
          <path
             d="m 409.47489,-52.003304 c 13.439,-3.72 28.888,-3.287 42.676,-2.336 14.002,0.967 29.027,2.625 42.166,7.853 11.422,4.545 21.054,12.188 26.923,23.14 4.825,9.003 7.088,18.8769996 8.506,28.9059996 0.58,4.1042858 1.06561,8.2182654 1.52754,12.3361074 l 0.94929,8.567033 c 0.37205,3.276047 0.69642,5.73211 1.34817,9.38686 1.803,10.109 4.314,18.555 9.92,25.91 13.576,17.806 35.744,23.766 55.903,31.366 12.9,4.863 23.115,13.611004 25.949,27.668004 2.73438,13.56102 106.69741,127.33236 116.90362,136.92346 l 0.28038,0.25854 c 7.917,7.128 6.985,20.527 8.093,30.31 1.187,10.489 2.317,20.986 3.39,31.486 2.178,21.333 4.119,42.689 5.822,64.063 6.65837,83.59375 9.6793,167.47843 9.03725,251.33352 l -0.0403,4.74648 c -0.099,10.642 -0.02,21.331 -0.497,31.963 -0.459,10.218 -3.551,20.445 -13.019,25.782 -8.77157,4.94509 -19.8634,4.50957 -29.6664,5.00321 l -0.5866,0.0308 c -10.519,0.576 -21.042,1.048 -31.57,1.438 -42.786,1.583 -85.611,1.754 -128.422,1.557 -84.93,-0.391 -169.945,-2.258 -254.795,2.497 -21.629,1.212 -90.583,-6.153 -112.144,-4.054 -20.608,2.005 -2.926,12.112 -15.657,11.446 -41.86817,-2.19027 -81.582,-11.532 -121.695999,-22.785 -5.011,-1.405 -8.843,-6.268 -8.780783,-11.525 0.745783,-57.738 2.375783,-115.461 4.922783,-173.147 2.269,-51.386 5.259,-102.74 8.968,-154.042 1.612625,-22.29938 3.360766,-44.58957 5.244422,-66.86789 l 0.815578,-9.54711 c 1.064,-12.312 1.676,-24.85 4.097,-36.991 2.395,-12.008 7.828,-22.421 15.706,-31.725 7.069,-8.347 87.103999,-73.691 106.379999,-86.062 18.45,-11.842 37.824,-21.832 56.765,-32.807004 7.88,-4.566 15.44802,-2.922896 22.18002,-8.527896 3.54915,-2.95416 55.04575,-22.862192 68.93955,-29.431159 l 0.40943,-0.194945 c 10.634,-5.102 20.42,-10.634 27.768,-19.456 2.463,-2.957 7.294,-21.588 7.303,-27.5410004 0.017,-10.634 -0.789,-21.8359996 2.419,-32.1369996 3.836,-12.318 13.082,-21.34 25.562,-24.794 z M 432.25834,222.18864 349.97091,382.4392 h 53.50776 l -38.35461,89.03722 h 84.22918 L 419.47445,596.19064 590.34244,382.4392 H 526.2237 l 64.11874,-84.15886 h -44.47145 l 44.47145,-71.27164 z"
             id="ðŸŽ¨-Background-4"
             fill="#ffffff" />
          <path
             d="m 708.6788,312.3008 c -0.19,0.189 -0.39,0.38 -0.58,0.58 0.22,-0.31 0.41,-0.631 0.58,-0.95 z m -159.92,-46.681 c -7.39,9.441 -15.21,28.651 -22.39,38.261 -1.03,1.379 -2.04,2.76 -3.04,4.149 -2.98,4.17 1,10.55 5.9,10.281 9.79,-0.521 19.57,-1.25 29.35,-1.99 -20.09,22.389 -36.77,50.2 -55.22,73.919 -1.25,1.59 -2.48,3.191 -3.71,4.79 -4.67,6.09 0.01,8.851 6.39,7.21 1.32,-0.339 2.64,-0.679 3.96,-1.009 9.28,-2.38 18.55,-4.76 27.83,-7.13 5.13,-1.321 10.29,-2.95 15.49,-3.96 2.14,-0.41 4.19,-0.07 6.21,0.04 -0.97,1.479 -2.33,4.149 -2.6,4.559 -3.03,4.72 -6.08,9.42 -9.15,14.1 -5.98,9.101 -11.99,18.19 -18.22,27.12 -24.3,34.82 -50.51,68.061 -76.49,101.611 -6.54,8.439 -13.17,16.79 -19.91,25.06 0.03,-0.051 0.05,-0.101 0.08,-0.15 6.07,-11.821 12.14,-23.63 18.21,-35.451 11.54,-22.459 22.97,-44.979 34.63,-67.379 0.6,-1.17 1.21,-2.33 1.82,-3.5 2.42,-4.641 -1.55,-9.46 -6.52,-8.481 -24.246,4.777 -48.257,10.647 -71.97,17.598 -1.067,1.137 -2.636,1.47 -4.037,1.195 -0.953,0.285 -1.91,0.559 -2.863,0.848 0.289,-0.599 0.588,-1.192 0.879,-1.789 -0.969,-0.842 -1.451,-2.145 -0.821,-3.772 13.645,-35.208 32.353,-69.197 54.519,-100.325 -0.892,0.017 -1.782,0.03 -2.677,0.056 -24.33,0.66 -48.2,4.15 -71.65,10.779 -0.11,-2.17 1.2,-5.529 1.91,-7.129 2.84,-6.391 6.1,-12.631 9.15,-18.921 6.24,-12.92 12.48,-25.829 18.72,-38.75 6.1,-12.62 12.15,-25.279 17.89,-38.079 3.01,-6.711 6.02,-13.431 9.02,-20.15 2.45,-5.471 4.38,-10.981 6.41,-16.58 5.96,1.75 82.49,2.129 101.09,3.42 4.56,0.32 9.13,0.61 13.7,0.86 3.64,0.21 8.77,1.01 11.28,-2.28 l 0.95,0.799 c -8.26,9.88 -16.18,20.031 -24.12,30.17 z m -298.79,-183.559 c 0.38,-0.17 0.75,-0.34 1.12,-0.51 0.19,0.27 0.42,0.52 0.66,0.77 0.6,0.61 1.19,1.269 1.81,1.87 -1.2,-0.701 -2.4,-1.411 -3.59,-2.13 z m 534.84,561.99 c -0.69,-14.57 -1.46,-29.141 -2.28,-43.711 -1.62,-28.479 -3.29,-56.959 -5.52,-85.399 -4.53,-57.63 -8.75,-115.241 -15.54,-172.661 -2.85,-24.07 -6.83,-47.959 -10.82,-71.86 0.51,-0.46 1.03,-0.92 1.54,-1.369 -0.55,6.539 8.33,10.68 12.73,4.159 0.33,-0.489 0.65,-0.979 0.97,-1.489 3.81,-6.16 12.59,-36.381 11.98,-38.941 -1.1,-4.61 -4.16,-8.709 -6.55,-12.769 -2.09,-3.551 -4.2,-7.101 -6.34,-10.62 -4.27,-7.051 -8.67,-14.03 -13.28,-20.861 -9.55,-14.139 -19.99,-27.719 -32.29,-39.589 -12.73,-12.3 -27.34,-22.411 -42.43,-31.58 -7.25,-4.401 -14.73,-8.39 -22.35,-12.111 -7.52,-3.66 -15.75,-7.71 -23.85,-9.79 -0.46,-0.12 -0.93,0.521 -0.51,0.861 2.15,1.7 4.4,3.299 6.69,4.839 -6.2,-2.149 -12.59,-3.7 -19.03,-4.25 -12.47,-4.38 -25.09,-8.389 -37.5,-12.96 -12.2,-4.5 -24.22,-9.559 -32.33,-20.219 -6.93,-9.111 -11.31,-20.26 -14.68,-31.12 -3.7,-11.97 -5.17,-24.411 -8.59,-36.401 -0.27,-0.97 -1.86,-1.08 -2.07,0 -2.44,12.58 -2.33,26.721 -0.94,39.42 1.46,13.32 5.21,26.391 13.37,37.221 9.48,12.59 22.34,19.599 36.81,25.189 11.67,4.521 23.49,9.12 35.44,13.16 -1.56,1.021 -3.14,2.04 -4.77,3.01 -6.48,3.851 -13.22,7.271 -20.11,10.341 -12.58,5.609 -25.83,9.81 -39.16,13.22 -24.81,6.319 -50.25,9.53 -75.83,9.95 -51.18,0.85 -102.93,-9.87 -149.74,-30.57 -13.18,-5.83 -26.05,-12.241 -38.79,-18.97 -3.98,-2.101 -7.98,-4.221 -11.96,-6.401 0.33,-0.019 0.67,-0.049 1,-0.08 8.89,-0.839 17.67,-2.549 26.27,-4.969 17.61,-4.97 34.49,-12.72 51.07,-20.351 14.06,-6.47 28.54,-13.84 37.13,-27.319 4.59,-7.21 6.7,-15.67 8.41,-23.95 1.91,-9.22 4.16,-18.481 5.55,-27.79 0.49,-3.26 -0.24,-7.67 -3.74,-9.21 -1.4,-0.611 -2.55,-1.111 -4.12,-1.111 -3.47,0 -7.03,2.521 -7.86,5.981 -2.05,8.63 -3.29,17.5 -4.9,26.219 -1.39,7.54 -2.66,15.411 -6.73,22.04 -7.11,11.611 -21.05,17.55 -32.83,23.201 -14.93,7.16 -29.87,14.139 -45.38,19.95 -6.83,2.559 -13.78,4.88 -20.83,6.779 0.28,-1.729 0.04,-3.55 -0.98,-4.92 -1.7,-2.26 -3.63,-3.76 -5.82,-5.489 -2.38,-1.881 -5.58,-2.86 -8.39,-2.03 0,0.009 -0.01,0 -0.01,0 -1.14,-0.25 -2.4,-0.151 -3.7,0.439 -4.02,1.841 -8.03,3.7 -12.04,5.591 -57.69,27.14 -113.74,59.019 -156.19,107.569 -6.12,7 -11.85,14.361 -17.22,21.95 -5.22,7.371 -11.68,15.371 -13.12,24.51 -0.12,0.761 0.99,1.111 1.18,0.33 0.34,-1.41 0.8,-2.79 1.37,-4.13 -1.19,4.161 -1.12,8.581 0.56,12.93 1.99,5.12 5.64,8.511 10.25,9.86 -4.63,20.291 -7.74,40.851 -10.24,61.64 -3.59,29.95 -6.14,59.971 -8.06,90.07 -3.84,60.071 -5.55,120.441 -4.31,180.621 0.35,17.009 0.93,34.02 1.81,51.02 0.44,8.5 0.92,16.989 1.47,25.489 0.54,8.361 0.1,17.571 7.39,21.981 0.09,0.33 0.19,0.649 0.28,0.979 1.77,6.17 9.66,4.191 10.4,-1.41 0.01,-0.059 0.02,-0.13 0.03,-0.189 5.96,-4.55 5.06,-12.13 4.62,-19.401 -0.47,-7.849 -0.97,-15.689 -1.39,-23.529 -0.8,-15.041 -1.48,-30.08 -2.09,-45.131 -1.19,-29.76 -1.86,-59.559 -2.08,-89.34 -0.44,-59.57 3,-119.05 7.08,-178.449 1.71,-24.851 3.71,-49.591 4.32,-74.431 3.19,-1.66 4.17,-6.379 2.57,-9.559 37.78,25.779 72.84,56.599 100.99,92.42 4.7,5.979 9.19,12.139 13.49,18.41 1.4,2.039 2.73,4.16 4.07,6.279 -1.3,5.91 -2.31,11.92 -3.63,17.59 -2.72,11.711 -3.87,23.86 -5.43,35.761 -3.17,24.17 -5.4,48.559 -7.29,72.859 -3.72,47.99 -6.48,95.971 -7.35,144.101 -0.48,27.219 -1.12,54.609 0.08,81.82 -0.89,5.319 3.9,10.52 8.91,11.19 4.39,0.589 8.49,-1.69 10.41,-5.361 13.68,1.7 27.72,2.481 41.31,2.58 18.31,0.13 36.62,0.111 54.93,-0.28 36.63,-0.8 73.25,-1.739 109.87,-2.829 73.24,-2.16 146.48,-4.33 219.73,-6.5 20.31,-0.601 40.62,-1.2 60.93,-1.8 9.16,-0.27 20.58,2.369 27.8,-4.7 1.24,-1.221 2.2,-2.651 2.88,-4.181 2.16,0.54 4.81,0.01 6.23,-1.66 2.65,-3.13 4.6,-6.029 4.5,-10.369 -0.09,-4.061 -1.21,-8.34 -1.79,-12.36 -1.1,-7.55 -2.16,-15.101 -3.17,-22.661 -1.99,-14.94 -3.85,-29.899 -5.56,-44.87 -3.5,-30.609 -6.68,-61.29 -9.16,-92 -4.92,-60.729 -6.31,-121.779 -6.14,-182.699 0.02,-5.45 0.05,-10.9 0.08,-16.351 0.23,0.291 0.48,0.56 0.75,0.791 0.22,0.189 0.44,0.379 0.66,0.58 2.56,2.25 6.82,3.41 9.89,1.28 3.77,-2.441 6.37,-6.101 9.31,-9.41 3.09,-3.47 6.27,-6.851 9.48,-10.21 6.22,-6.5 12.65,-12.731 19.21,-18.891 0.53,-0.489 1.06,-0.989 1.59,-1.47 0.04,19.39 0.02,38.771 0.54,58.151 0.78,28.79 2.34,57.55 3.77,86.3 2.84,56.929 5.78,113.839 8.61,170.759 0.79,15.891 1.54,31.79 2.33,47.68 0.4,7.95 0.79,15.9 1.17,23.851 0.2,4.299 0.4,8.61 0.6,12.91 0.22,4.62 -0.07,9.559 1.49,13.95 3.55,10.039 18.89,11.459 21.84,0 1.85,-7.19 0.43,-15.511 0.1,-22.891 -0.34,-7.279 -0.68,-14.57 -1.03,-21.859 z"
             id="ðŸ–-Ink-1"
             fill="#000000" />
        </g>
        <g
           id="head/mono/No-Hair-1"
           stroke="none"
           stroke-width="1"
           fill="none"
           fill-rule="evenodd"
           transform="matrix(0.26458333,0,0,0.26458333,178.10296,70.203894)">
          <path
             d="m 402.06625,224.22051 c -9.05054,-38.15347 -28.83776,-73.65967 -60.51645,-102.35491 -95.328,-94.246 -270.391,-43.091 -269.598,98.931 -3.419,16.588 -4.807,33.644 -3.675,50.561 0.468,7.218 3.592,17.291 -0.605,23.787 -9.467,12.153 -14.969,21.111 -11.747,37.277 2.692,14.115 12.298,24.115 25.262,29.431 7.775,2.231 15.152,7.091 18.032,14.499 17.306,31.684 30.127,58.038 57.41,79.631 7.04,5.559 79.24587,38.901 103.037,38.901 69.65123,0 157.437,-25.23 158.894,-103.03 0.252,-17.088 -2.747,-34.375 -4.628,-51.328 -4.57884,-38.68806 -2.9634,-78.77716 -11.86555,-116.30509 z"
             id="ðŸŽ¨-Background"
             fill="#ffffff" />
          <path
             d="m 400.499,205.1369 c 0.022,-0.472 0.698,-0.578 0.829,-0.112 2.589,9.185 4.056,18.542 6.081,27.87 1.95,8.985 3.791,17.996 5.323,27.06 2.89108,17.10646 5.32715,34.25723 7.59294,51.45309 l 0.56306,4.29991 c 3.938,30.257 10.442,61.778 4.755,92.212 -4.853,25.969 -21.124,46.899 -42.093,62.244 -19.855,14.529 -43.928,23.853 -67.83,29.154 -25.654,5.691 -56.062,7.389 -76.935,-11.423 -8.356,-7.533 3.035,-22.479 12.1,-15.681 21.28599,15.9588 48.36437,11.25415 72.3831,4.90391 l 0.7269,-0.19291 c 21.081,-5.615 42.302,-14.126 59.038,-28.484 18.503,-15.875 27.652,-37.907 28.709,-62.071 0.59304,-13.57618 -0.67269,-27.13655 -2.03798,-40.63269 L 409.552,344.2379 c -1.567,-15.434 -3.211,-30.861 -4.728,-46.301 -1.38413,-14.07933 -2.57836,-28.24055 -3.20951,-42.38284 l -0.29452,-7.1329 c -0.61335,-14.38108 -1.4391,-28.9723 -0.82097,-43.28426 z M 150.8565,85.645 c 34.638,-18.033 74.446,-24.487 112.994,-18.435 37.058,5.818 71.068,24.94 96.489,52.359 12.411,13.387 23.427,28.872 30.467,45.789 3.497,8.404 6.235,17.171 7.693,26.175 0.75,4.629 1.487,9.425 1.628,14.118 0.13,4.345 -1.146,8.42 -0.995,12.837 0.023,0.691 -1.036,0.824 -1.197,0.162 -1.204,-4.925 -4.105,-8.649 -5.925,-13.327 -1.36033,-3.493 -2.90336,-6.90312 -4.47428,-10.30283 L 386.1865,192.107 c -3.918,-8.467 -8.601,-16.586 -13.234,-24.676 -9.329,-16.294 -21.299,-31.102 -35.315,-43.597 -24.609,-21.938 -56.18,-36.099 -89.131,-38.649 -34.201,-2.648 -68.891,5.504 -98.099,23.562 -29.206,18.057 -51.29,46.127 -62.756,78.446 -5.785,16.309 -8.98,33.302 -9.723,50.58 -0.376,8.746 -0.025,17.565 0.588,26.294 l 0.304487,4.16256 c 0.356791,4.99186 0.601339,9.96448 -0.144487,14.83544 5.268,-1.643 10.79,-2.324 16.332,-1.511 8.235,1.208 13.155,4.584 16.849,11.942 0.193,0.384 -0.194,0.768 -0.577,0.577 -4.789,-2.39 -12.537,-1.132 -17.609,0.121 -5.278,1.304 -10.032,3.572 -14.517,6.638 -8.297,5.669 -14.801,14.454 -16.397,24.533 -1.543,9.736 2.454,19.594 9.168,26.572 3.456,3.594 7.587,6.701 12.212,8.637 5.613,2.351 11.169,2.278 16.135,6.159 3.07,2.399 2.328,6.504 0.246,9.168 10.477,11.488 19.768,24.056 30.244,35.589 4.856,5.34578 9.67328,10.69788 14.32613,16.21573 l 1.73687,2.07727 c 4.646,5.607 12.038,11.53 14.161,18.582 1.321,4.387 -3.377,10.125 -8.126,8.126 -7.28464,-3.06732 -12.48489,-11.04771 -17.40735,-17.16852 L 135.1325,438.926 c -5.162,-6.343 -9.745,-13.039 -13.935,-20.056 l -1.3777,-2.31165 C 112.24317,403.81601 104.7317,390.6006 99.9005,376.602 c -0.319,0.328 -0.657,0.627 -1.013,0.88 -6.96,4.949 -17.078,1.144 -24.029,-2.07 -6.562,-3.033 -12.578,-7.597 -17.267,-13.098 -10.198,-11.962 -14.899,-27.454 -11.493,-42.979 2.885,-13.151 12,-25.943 23.95,-32.595 -5.516,-6.35 -7.8,-14.91 -9.32,-23.279 -1.94,-10.683 -2.327,-21.631 -1.8,-32.464 1.051,-21.577 6.604,-42.846 15.188,-62.604 15.358,-35.353 42.51,-64.925 76.74,-82.748 z M 77.9552,321.556 c 7.27,-1.362 14.045,-1.691 21.057,1.385 7.606,3.339 12.959,8.851 17.935,15.309 5.66181,7.3458 -8.8488,15.37081 -12.50748,5.61897 L 104.3322,343.568 c -0.98,-2.887 -2.735,-5.678 -4.958,-8.247 -0.667,1.022 -1.559,1.922 -2.607,2.437 -1.269,0.624 -3.207,0.192 -3.512,-1.429 -0.338,-1.799 0.036,-3.979 1.074,-5.502 l 0.142,-0.208 v 0 c -5.044,-4.059 -11.111,-7.024 -16.516,-7.978 -0.54,-0.096 -0.534,-0.985 0,-1.085 z"
             id="ðŸ–-Ink"
             fill="#000000" />
        </g>
        <path
           style="fill:#ffffff;stroke:#000000;stroke-width:3.32097;stroke-linecap:butt;stroke-linejoin:miter;stroke-opacity:1"
           d="M 39.748606,388.2333 529.71386,362.2206 701.28984,406.89046 209.66922,440.25868 Z"
           id="path8414"
           sodipodi:nodetypes="ccccc" />
        <g
           id="g19046"
           transform="rotate(1.4231789,329.91965,355.5648)">
          <path
             style="fill:#cccccc;stroke:#000000;stroke-width:2.64583;stroke-linecap:butt;stroke-linejoin:miter;stroke-opacity:1"
             d="m 233.96079,390.28916 65.62959,-0.77576 c 0,0 3.135,-21.50148 4.59379,-37.40693 1.65629,-18.05905 3.10975,-36.189 10.2918,-39.99193 17.26854,-7.32006 64.1313,-11.23468 64.1313,-11.23468 22.22432,-2.44521 37.68971,-2.12607 40.51114,-2.04621 17.9108,0.5035 -10.08389,99.41341 -10.08389,99.41341 0,0 -97.98919,15.1876 -120.30468,14.04334 -18.72629,-1.15044 -33.81752,-12.45665 -54.76905,-22.00124 z"
             id="path5451"
             sodipodi:nodetypes="ccscccccc" />
          <path
             style="fill:#cccccc;stroke:#000000;stroke-width:2.64583;stroke-linecap:butt;stroke-linejoin:miter;stroke-opacity:1"
             d="m 299.59038,389.5134 c 0,0 3.135,-21.50148 4.59379,-37.40693 1.65629,-18.05905 3.10975,-36.189 10.2918,-39.99193 17.26854,-7.32006 64.1313,-11.23468 64.1313,-11.23468 22.22432,-2.44521 37.68971,-2.12607 40.51114,-2.04621 17.9108,0.5035 -10.08389,99.41341 -10.08389,99.41341 l -113.04299,13.61618 z"
             id="path7617"
             sodipodi:nodetypes="cscccccc" />
        </g>
        <path
           d="m 271.44604,179.09722 c -1.94909,0.56452 -4.0412,0.61499 -6.02796,0.032 -1.80203,-0.52885 -3.6523,-1.69264 -4.97856,-3.23262 -1.17817,-1.36803 -1.9412,-3.03053 -1.91123,-4.80512 0.003,-0.20268 0.0759,-0.37185 0.18736,-0.50316 0.12001,-0.14136 0.28763,-0.23843 0.4672,-0.28056 0.18467,-0.0433 0.37989,-0.028 0.54613,0.0475 0.15049,0.0684 0.27942,0.18447 0.36005,0.35417 0.20382,0.26775 0.40685,0.53153 0.61068,0.788 1.63881,2.02361 3.22588,3.5359 5.69019,4.07831 1.33705,0.29436 2.67243,0.16383 3.89768,-0.28527 1.31158,-0.48075 2.4972,-1.32601 3.42629,-2.40768 0.41987,-0.48883 0.91558,-0.68836 1.40029,-0.69171 0.54929,-0.004 1.09221,0.25144 1.50122,0.65938 0.40205,0.40099 0.67125,0.94591 0.69565,1.51592 0.0214,0.50029 -0.14179,1.02287 -0.57597,1.4891 -1.43013,1.53577 -3.28359,2.66086 -5.28902,3.2417 z m -0.0602,-25.3449 c 1.99797,1.21445 5.04226,4.04631 2.8929,7.05708 -2.52999,2.6547 -6.17262,-0.38909 -7.96764,-1.76568 -1.66443,-1.06686 -3.5345,1.67703 -1.99025,2.92277 12.97087,9.60312 18.23472,-7.8966 8.07553,-9.64206 -1.11856,-0.19234 -1.534,1.05219 -1.01054,1.42789 z m -18.68999,-5.3438 c -0.64216,-0.41068 -1.39755,-0.55165 -2.23474,-0.17076 -0.65423,0.29751 -1.80168,1.28931 -2.60022,2.5931 -0.54631,0.89196 -0.93371,1.93836 -0.85306,3.0283 0.0187,0.25313 -0.0748,0.43977 -0.22233,0.57776 -0.11652,0.10899 -0.28482,0.18909 -0.48251,0.21413 -0.16783,0.0213 -0.35568,0.002 -0.50843,-0.0456 -0.29057,-0.0907 -0.44435,-0.27917 -0.50229,-0.43305 -0.55912,-1.48486 -0.31824,-3.14188 0.30839,-4.6368 0.84568,-2.01749 2.38145,-3.70739 3.38765,-4.25223 1.7218,-0.93267 3.75306,-0.9756 5.47733,-0.0255 1.46778,0.80869 2.38556,2.11429 3.29835,3.44514 0.19404,0.28291 0.38662,0.56375 0.58566,0.83964 0.3989,0.55283 0.43861,1.10112 0.28413,1.57129 -0.17114,0.52086 -0.60749,0.96042 -1.15315,1.19047 -0.50433,0.21261 -1.08967,0.24254 -1.60762,0.0241 -0.43756,-0.18455 -0.83911,-0.54431 -1.09319,-1.15472 -0.42793,-1.02801 -1.1409,-2.16221 -2.08397,-2.76532 z m 32.61408,2.28713 c -0.4398,0.22916 -0.78387,0.29825 -1.27173,0.15208 -0.26978,-0.081 -0.53642,-0.23634 -0.74518,-0.4451 -0.20689,-0.20689 -0.35616,-0.46417 -0.41418,-0.74959 -0.1427,-0.7044 -0.52811,-1.36378 -1.07733,-1.79362 -0.46943,-0.3674 -1.06196,-0.56213 -1.71919,-0.45227 -0.70919,0.11839 -1.38487,0.57323 -1.85024,1.10948 -0.15554,0.17943 -0.27746,0.38322 -0.40003,0.58564 -0.22929,0.37854 -0.45215,0.73039 -0.76838,1.00839 -0.11986,0.10577 -0.30049,0.17902 -0.47544,0.17902 -0.0711,0 -0.14326,-0.0116 -0.21202,-0.033 -0.70587,-0.70847 -0.84162,-1.24592 -0.81886,-1.779 0.0239,-0.55902 0.24425,-1.12501 0.60041,-1.6531 0.83545,-1.23877 2.42169,-2.25444 3.4921,-2.48449 1.46592,-0.31503 2.92175,0.0631 4.08897,0.88189 1.201,0.84244 2.09093,2.15042 2.36839,3.62444 0.0668,0.355 0.0384,0.73819 -0.0968,1.07043 -0.13211,0.32465 -0.36234,0.60271 -0.70048,0.7788 z m -29.38106,-15.49446 c -0.87973,0.85712 -1.92096,0.98989 -2.97434,1.10797 -0.58529,0.0662 -1.05252,0.11962 -1.51229,0.22336 -1.26374,0.28527 -2.51291,0.71491 -3.65257,1.33367 -1.19133,0.64685 -2.48961,1.42694 -3.42362,2.4263 -0.2221,0.23782 -0.43146,0.48735 -0.64112,0.73743 -0.19117,0.22804 -0.37534,0.44758 -0.56943,0.65925 -0.22289,0.24314 -0.43456,0.49797 -0.6451,0.75213 -0.13019,0.21446 -0.1559,0.2672 -0.18212,0.32212 -0.0395,0.0825 -0.0853,0.17484 -0.13776,0.2739 -0.0718,0.13566 -0.15586,0.28417 -0.24392,0.41881 -0.14651,0.24611 -0.22513,0.3139 -0.29306,0.34422 -0.11272,0.0502 -0.21962,0.0749 -0.32333,0.0615 -0.0972,-0.0126 -0.18886,-0.0593 -0.27933,-0.13572 -0.45166,-0.3816 -0.58487,-1.00786 -0.57121,-1.67264 0.0207,-1.00879 0.3928,-2.12571 0.7358,-2.81231 0.79755,-1.59536 1.90364,-3.25383 3.23365,-4.44453 1.51766,-1.35915 3.17804,-2.3881 5.08515,-3.09712 1.18515,-0.44077 2.55736,-0.84535 3.84854,-0.79425 0.92939,0.0368 1.81663,0.31306 2.54935,1.00298 0.44993,0.42352 0.66591,1.02593 0.66591,1.62792 0,0.61398 -0.22432,1.23158 -0.6692,1.66497 z m 31.17022,7.84885 c -0.0559,0.0917 -0.13338,0.15488 -0.21954,0.19283 -0.0903,0.0398 -0.19116,0.0512 -0.28792,0.0349 -0.0963,-0.0162 -0.18791,-0.0599 -0.26056,-0.12664 -0.0696,-0.064 -0.12264,-0.1488 -0.14634,-0.25274 -0.58408,-2.56527 -1.71819,-4.47388 -4.13883,-5.70466 -1.19074,-0.60546 -2.55999,-0.99015 -3.8562,-1.29686 -0.37667,-0.0891 -0.77468,-0.14689 -1.17551,-0.20541 -1.2562,-0.18342 -2.52147,-0.39348 -3.34041,-1.40889 -0.49345,-0.61165 -0.70054,-1.39387 -0.58345,-2.10926 0.11024,-0.67357 0.50385,-1.29119 1.21935,-1.6613 1.7813,-0.92101 3.99492,-0.0173 5.79375,0.7526 0.13343,0.0571 0.26442,0.11317 0.39258,0.16726 1.75912,0.74254 3.36352,1.72267 4.68237,3.12436 1.04645,1.11202 2.016,2.75593 2.40648,4.44705 0.32487,1.40696 0.24848,2.84327 -0.48577,4.04672 z"
           id="ðŸ–-Ink-3"
           fill="#000000"
           style="fill-rule:evenodd;stroke:none;stroke-width:0.264583" />
        <ellipse
           style="opacity:1;fill:#ffffff;stroke:#000000;stroke-width:2.26968"
           id="path7513"
           cx="456.84384"
           cy="233.79317"
           rx="7.9295721"
           ry="13.394156"
           transform="rotate(16.627559)" />
        <path
           style="fill:#ffffff;stroke:#000000;stroke-width:2.64583;stroke-linecap:butt;stroke-linejoin:miter;stroke-opacity:1"
           d="m 40.516447,389.33674 0.590495,27.3052 171.241808,57.20839 -0.13689,-33.12773 z"
           id="path9561"
           sodipodi:nodetypes="ccccc" />
        <path
           style="fill:#ffffff;stroke:#000000;stroke-width:2.64583;stroke-linecap:butt;stroke-linejoin:miter;stroke-opacity:1"
           d="m 212.33298,441.01393 v 32.82062 l 486.92114,-39.61769 0.35185,-26.75095 z"
           id="path9629"
           sodipodi:nodetypes="ccccc" />
      </g>
    </g>
  </g>
</svg>
